<?xml version="1.0" encoding="UTF-8"?>
<svg width="138px" height="32px" viewBox="0 0 138 32" version="1.1" xmlns="http://www.w3.org/2000/svg" xmlns:xlink="http://www.w3.org/1999/xlink">
    <!-- Generator: Sketch 48.1 (47250) - http://www.bohemiancoding.com/sketch -->
    <title>白字-logo</title>
    <desc>Created with Sketch.</desc>
    <defs>
        <linearGradient x1="49.995%" y1="130.655%" x2="49.995%" y2="0.005%" id="linearGradient-1">
            <stop stop-color="#009EFD" offset="0%"></stop>
            <stop stop-color="#2AF598" offset="100%"></stop>
        </linearGradient>
    </defs>
    <g id="Page-1" stroke="none" stroke-width="1" fill="none" fill-rule="evenodd">
        <g id="白字-logo">
            <path d="M100,6.4 C99.6,6.4 99.2,6.5 99,6.6 C98.7,6.8 98.5,7 98.3,7.2 C98.1,7.5 98,7.8 97.9,8.2 C97.8,8.6 97.8,9 97.8,9.4 C97.8,10.3 98,11.1 98.3,11.6 C98.6,12.1 99.2,12.4 100,12.4 C100.8,12.4 101.3,12.1 101.7,11.6 C102.1,11.1 102.2,10.3 102.2,9.4 C102.2,8.5 102,7.7 101.7,7.1 C101.4,6.6 100.8,6.4 100,6.4 Z" id="Shape"></path>
            <path d="M65.1,12.1 L60.8,12.1 L60.8,8.8 L64.9,8.8 C65.3,8.8 65.6,8.7 65.8,8.5 C66,8.3 66.1,8 66.1,7.7 C66.1,7.3 66,7 65.8,6.8 C65.6,6.6 65.3,6.5 64.9,6.5 L60.8,6.5 L60.8,3.8 L65.1,3.8 C65.5,3.8 65.8,3.7 66,3.6 C66.2,3.4 66.3,3.1 66.3,2.7 C66.3,2.3 66.2,2 66,1.8 C65.8,1.6 65.5,1.6 65.2,1.6 L59.6,1.6 C59.2,1.6 58.9,1.7 58.7,1.8 C58.5,2 58.4,2.3 58.4,2.7 L58.4,13.3 C58.4,13.7 58.5,14 58.7,14.2 C58.9,14.3 59.2,14.4 59.6,14.4 L65.1,14.4 C65.6,14.4 65.9,14.3 66.1,14.2 C66.3,14 66.4,13.7 66.4,13.3 C66.4,12.9 66.3,12.6 66.1,12.4 C65.9,12.1 65.6,12.1 65.1,12.1 Z" id="Shape" fill="#FFFFFF" fill-rule="nonzero"></path>
            <path d="M123,5.3 C123,4.9 122.9,4.6 122.7,4.5 C122.5,4.3 122.3,4.3 122,4.3 L120.3,4.3 L120.3,3.9 C120.3,3.8 120.3,3.7 120.3,3.6 C120.3,3.5 120.4,3.3 120.5,3.2 C120.6,3.1 120.8,2.9 121,2.8 C121.2,2.7 121.5,2.6 121.9,2.6 L122.4,2.6 C122.6,2.6 122.8,2.5 123,2.4 C123.2,2.3 123.3,2 123.3,1.6 C123.3,1.2 123.2,0.9 123,0.8 C122.8,0.7 122.6,0.6 122.3,0.6 L121.7,0.6 C121.2,0.6 120.7,0.6 120.3,0.7 C119.8,0.8 119.4,0.9 119.1,1.1 C118.7,1.3 118.5,1.7 118.3,2.1 C118.1,2.5 118,3.1 118,3.8 L118,4.3 L117.4,4.3 C117.1,4.3 116.9,4.4 116.7,4.5 C116.5,4.6 116.4,4.9 116.4,5.4 C116.4,5.9 116.5,6.2 116.7,6.3 C116.9,6.4 117.1,6.5 117.3,6.5 L118.1,6.5 L118.1,13.7 C118.1,13.9 118.2,14.2 118.4,14.3 C118.6,14.5 118.9,14.5 119.3,14.5 C119.7,14.5 120,14.4 120.2,14.3 C120.4,14.1 120.5,13.9 120.5,13.7 L120.5,6.4 L122.2,6.4 C122.5,6.4 122.7,6.3 122.9,6.2 C123,6 123,5.7 123,5.3 Z" id="Shape" fill="#FFFFFF" fill-rule="nonzero"></path>
            <path d="M69.8,14.3 L75.3,14.3 C75.8,14.3 76.1,14.2 76.3,14.1 C76.5,13.9 76.6,13.6 76.6,13.2 C76.6,12.8 76.5,12.5 76.3,12.3 C76.1,12.1 75.8,12.1 75.3,12.1 L71,12.1 L71,8.8 L75.1,8.8 C75.5,8.8 75.8,8.7 76,8.5 C76.2,8.3 76.3,8 76.3,7.7 C76.3,7.3 76.2,7 76,6.8 C75.8,6.6 75.5,6.5 75.1,6.5 L71,6.5 L71,3.8 L75.3,3.8 C75.7,3.8 76,3.7 76.2,3.6 C76.4,3.4 76.5,3.1 76.5,2.7 C76.5,2.3 76.4,2 76.2,1.8 C76,1.6 75.7,1.6 75.4,1.6 L69.8,1.6 C69.4,1.6 69.1,1.7 68.9,1.8 C68.7,2 68.6,2.3 68.6,2.7 L68.6,13.3 C68.6,13.7 68.7,14 69,14.2 C69.2,14.2 69.5,14.3 69.8,14.3 Z" id="Shape" fill="#FFFFFF" fill-rule="nonzero"></path>
            <path d="M104.7,9.5 C104.7,8.8 104.6,8.1 104.4,7.4 C104.2,6.8 103.9,6.2 103.6,5.7 C103.2,5.2 102.7,4.8 102.1,4.6 C101.5,4.3 100.8,4.2 99.9,4.2 C99,4.2 98.3,4.3 97.7,4.6 C97.1,4.9 96.6,5.2 96.2,5.7 C95.8,6.2 95.6,6.7 95.4,7.4 C95.2,8 95.1,8.7 95.1,9.5 C95.1,10.2 95.2,10.9 95.4,11.6 C95.6,12.2 95.9,12.8 96.2,13.2 C96.6,13.7 97.1,14 97.7,14.3 C98.3,14.6 99,14.7 99.8,14.7 C100.6,14.7 101.3,14.6 101.9,14.3 C102.5,14 103,13.7 103.4,13.2 C103.8,12.7 104.1,12.2 104.2,11.6 C104.6,10.9 104.7,10.2 104.7,9.5 Z M101.7,11.7 C101.3,12.2 100.8,12.5 100,12.5 C99.2,12.5 98.7,12.2 98.3,11.7 C98,11.2 97.8,10.4 97.8,9.5 C97.8,9.1 97.8,8.7 97.9,8.3 C98,7.9 98.1,7.6 98.3,7.3 C98.5,7 98.7,6.8 99,6.7 C99.3,6.5 99.6,6.5 100,6.5 C100.8,6.5 101.4,6.8 101.8,7.3 C102.1,7.9 102.3,8.6 102.3,9.6 C102.2,10.4 102.1,11.2 101.7,11.7 Z" id="Shape" fill="#FFFFFF" fill-rule="nonzero"></path>
            <path d="M56,8.2 C55.7,7.9 55.4,7.7 55,7.4 C54.6,7.2 54.1,6.9 53.6,6.7 C53.4,6.6 53.1,6.5 52.9,6.4 C52.6,6.3 52.4,6.2 52.1,6 C51.9,5.9 51.7,5.7 51.5,5.5 C51.3,5.3 51.3,5.1 51.3,4.8 C51.3,4.6 51.3,4.5 51.4,4.3 C51.5,4.1 51.6,4 51.7,3.9 C51.8,3.8 52,3.7 52.1,3.6 C52.4,3.4 52.8,3.4 53.2,3.6 C53.4,3.7 53.6,3.7 53.7,3.8 C53.9,3.9 54,4 54.2,4.1 C54.4,4.2 54.5,4.3 54.6,4.4 C54.7,4.5 54.8,4.5 55,4.6 C55.1,4.6 55.3,4.6 55.4,4.6 C55.5,4.6 55.7,4.5 55.8,4.4 C56,4.2 56.1,4.1 56.2,4 C56.4,3.7 56.4,3.4 56.3,3.1 C56.2,2.8 56,2.5 55.6,2.2 C55.3,1.9 54.9,1.7 54.4,1.6 C53.9,1.4 53.4,1.3 52.8,1.3 C52.3,1.3 51.8,1.4 51.3,1.5 C50.8,1.6 50.4,1.9 50,2.2 C49.6,2.5 49.3,2.9 49,3.3 C48.8,3.8 48.6,4.3 48.6,4.9 C48.6,5.5 48.7,5.9 48.9,6.3 C49.1,6.7 49.4,7.1 49.7,7.4 C50,7.7 50.4,7.9 50.9,8.2 C51.3,8.4 51.8,8.6 52.3,8.8 C52.5,8.9 52.7,8.9 52.9,9 C53.1,9.1 53.3,9.2 53.5,9.4 C53.7,9.6 53.8,9.7 54,9.9 C54.1,10.1 54.2,10.3 54.2,10.6 C54.2,10.9 54.1,11.1 54,11.4 C53.9,11.6 53.8,11.8 53.6,12 C53.4,12.1 53.2,12.3 53,12.3 C52.5,12.5 52,12.4 51.5,12.3 C51.3,12.2 51,12.1 50.8,12 C50.6,11.9 50.4,11.8 50.2,11.6 C50,11.5 49.8,11.3 49.6,11.2 C49.4,11 49.2,11 48.9,11 C48.6,11 48.4,11.2 48.2,11.5 C48.1,11.6 48,11.8 48,12 C48,12.2 48,12.4 48.1,12.6 C48.2,12.8 48.3,13 48.5,13.2 C48.7,13.4 49,13.6 49.3,13.8 C49.7,14 50.1,14.2 50.5,14.3 C50.9,14.4 51.4,14.5 51.8,14.5 C51.9,14.5 51.9,14.5 52,14.5 C53.5,14.5 54.6,14.1 55.4,13.3 C56.1,12.6 56.5,11.6 56.5,10.4 C56.5,9.9 56.5,9.5 56.3,9.2 C56.4,8.8 56.3,8.5 56,8.2 Z" id="Shape" fill="#FFFFFF" fill-rule="nonzero"></path>
            <path d="M93.4,11.2 C93.1,11.1 92.7,11.1 92.4,11.3 C92.2,11.4 92.1,11.5 91.9,11.6 C91.8,11.7 91.6,11.8 91.4,11.9 C91.2,12 91,12.1 90.8,12.1 C90.6,12.2 90.3,12.2 89.9,12.2 C89.3,12.2 88.7,12.1 88.2,11.8 C87.7,11.5 87.3,11.2 87,10.8 C86.7,10.4 86.4,9.9 86.3,9.3 C86.1,8.8 86.1,8.2 86.1,7.6 C86.1,7 86.2,6.5 86.3,5.9 C86.4,5.4 86.7,4.9 87,4.5 C87.3,4.1 87.6,3.8 88.1,3.5 C88.5,3.3 89,3.1 89.6,3.1 C90.1,3.1 90.5,3.2 90.8,3.3 C91.1,3.4 91.4,3.6 91.7,3.8 C92,4 92.2,4.1 92.4,4.2 C92.6,4.3 92.9,4.3 93.1,4.2 C93.2,4.1 93.4,4.1 93.5,4 C93.6,3.9 93.7,3.8 93.7,3.8 C93.7,3.8 93.8,3.7 93.8,3.6 C93.8,3.5 93.9,3.3 93.8,3.2 C93.8,3 93.7,2.8 93.4,2.5 C93.2,2.2 92.9,2 92.5,1.8 C92.1,1.6 91.7,1.4 91.2,1.2 C90.7,1 90.1,1 89.6,1 C88.8,1 88,1.2 87.2,1.5 C86.5,1.8 85.8,2.2 85.3,2.8 C84.8,3.4 84.3,4.1 84,4.9 C83.7,5.7 83.5,6.7 83.5,7.7 C83.5,8.8 83.6,9.7 84,10.5 C84.3,11.3 84.8,12 85.3,12.6 C85.9,13.2 86.6,13.6 87.3,13.9 C88.1,14.2 88.9,14.4 89.8,14.4 C90.4,14.4 91,14.3 91.5,14.1 C92,13.9 92.4,13.7 92.8,13.5 C93.2,13.3 93.4,13 93.6,12.8 C93.8,12.5 93.9,12.3 93.9,12.2 C93.9,12 93.9,11.8 93.8,11.6 C93.9,11.5 93.7,11.4 93.4,11.2 Z" id="Shape" fill="#FFFFFF" fill-rule="nonzero"></path>
            <path d="M114.5,14.2 C114.7,14 114.8,13.8 114.8,13.6 L114.8,7.7 C114.8,7.1 114.7,6.6 114.6,6.2 C114.4,5.8 114.2,5.4 113.9,5.1 C113.6,4.8 113.2,4.6 112.8,4.4 C112.4,4.3 111.9,4.2 111.4,4.2 C111,4.2 110.7,4.3 110.4,4.4 C110.1,4.5 109.9,4.7 109.7,4.8 C109.5,5 109.3,5.2 109.1,5.4 C109,5.5 109,5.6 108.9,5.7 L108.9,5.2 C108.9,5 108.8,4.7 108.5,4.6 C108.3,4.4 108,4.4 107.7,4.4 C107.4,4.4 107.1,4.5 106.8,4.6 C106.5,4.8 106.4,5 106.4,5.2 L106.4,13.6 C106.4,13.8 106.5,14 106.8,14.2 C107,14.4 107.3,14.5 107.7,14.5 C108,14.5 108.3,14.4 108.6,14.3 C108.8,14.1 109,13.9 109,13.7 L109,8.5 C109,8.1 109,7.7 109.1,7.4 C109.2,7.1 109.3,6.9 109.5,6.8 C109.7,6.7 109.9,6.5 110.1,6.5 C110.3,6.4 110.6,6.4 110.9,6.4 C111.2,6.4 111.5,6.4 111.7,6.5 C111.9,6.6 112.1,6.7 112.2,6.9 C112.3,7.1 112.4,7.3 112.4,7.6 C112.4,7.9 112.5,8.2 112.5,8.6 L112.5,13.6 C112.5,13.8 112.6,14.1 112.9,14.2 C113.1,14.4 113.4,14.4 113.8,14.4 C114.2,14.4 114.3,14.4 114.5,14.2 Z" id="Shape" fill="#FFFFFF" fill-rule="nonzero"></path>
            <path d="M30.7,2.6 C31.4,2.6 32,2 32,1.3 C32,0.6 31.4,0 30.7,0 L2.6,0 C1.2,0 0,1.2 0,2.6 L0,14.7 C0,16.1 1.2,17.3 2.6,17.3 L29.5,17.3 L29.5,22.1 L13.5,22.1 C12.8,22.1 12.2,22.7 12.2,23.4 C12.2,24.1 12.8,24.7 13.5,24.7 L29.5,24.7 L29.5,29.5 L1.3,29.5 C0.6,29.4 0,30 0,30.7 C0,31.4 0.6,32 1.3,32 L29.4,32 C30.8,32 32,30.8 32,29.4 L32,17.3 C32,15.9 30.8,14.7 29.4,14.7 L2.6,14.7 L2.6,9.9 L18.6,9.9 C19.3,9.9 19.9,9.3 19.9,8.6 C19.9,7.9 19.3,7.3 18.6,7.3 L2.6,7.3 L2.6,2.6 L30.7,2.6 Z" id="Shape" fill="url(#linearGradient-1)" fill-rule="nonzero"></path>
            <path d="M52.95,24.087 L53.571,24.123 L53.121,26.598 L54.777,26.598 L55.209,23.655 L52.257,23.655 L52.257,23.043 L55.92,23.043 L55.425,26.598 L56.37,26.598 C56.37,28.749 56.244,29.991 56.01,30.324 C55.758,30.648 55.245,30.819 54.453,30.819 C54.237,30.819 54.003,30.801 53.751,30.783 L53.562,30.126 C53.913,30.171 54.156,30.198 54.291,30.198 C54.993,30.198 55.407,30.054 55.533,29.766 C55.677,29.469 55.758,28.614 55.758,27.201 L52.437,27.201 L52.95,24.087 Z M52.158,28.317 L55.128,28.317 L55.128,28.911 L52.158,28.911 L52.158,28.317 Z M49.899,22.611 L50.556,22.611 L50.556,24.204 L51.762,24.204 L51.762,27.858 L50.52,27.858 L50.52,29.604 C50.817,29.523 51.114,29.442 51.402,29.352 C51.312,29.064 51.222,28.794 51.132,28.533 L51.654,28.371 C51.924,29.046 52.158,29.82 52.365,30.684 L51.789,30.837 C51.717,30.513 51.645,30.207 51.564,29.901 C50.61,30.216 49.593,30.477 48.522,30.693 L48.36,30.072 C48.882,29.982 49.386,29.883 49.89,29.766 L49.89,27.858 L48.684,27.858 L48.684,24.204 L49.899,24.204 L49.899,22.611 Z M49.917,24.78 L49.251,24.78 L49.251,27.282 L49.917,27.282 L49.917,24.78 Z M50.493,27.282 L51.195,27.282 L51.195,24.78 L50.493,24.78 L50.493,27.282 Z M57.711,24.087 L58.89,24.087 L58.89,22.71 L59.52,22.71 L59.52,24.087 L60.699,24.087 L60.699,27.732 L59.52,27.732 L59.52,29.523 C59.772,29.46 60.015,29.397 60.249,29.325 C60.168,29.037 60.087,28.767 59.997,28.497 L60.501,28.344 C60.708,28.884 60.897,29.496 61.068,30.18 C61.788,29.73 62.391,29.127 62.895,28.389 C62.13,27.174 61.536,25.68 61.104,23.907 L61.653,23.601 C62.031,25.284 62.562,26.688 63.246,27.813 C63.93,26.571 64.38,24.987 64.596,23.079 L65.208,23.205 C64.956,25.365 64.434,27.102 63.651,28.425 C64.236,29.235 64.911,29.874 65.676,30.342 L65.298,30.9 C64.533,30.414 63.867,29.775 63.291,28.983 C62.679,29.82 61.959,30.468 61.122,30.918 L60.879,30.531 L60.564,30.612 C60.51,30.36 60.447,30.108 60.393,29.874 C59.565,30.135 58.674,30.351 57.729,30.531 L57.576,29.91 C58.026,29.838 58.458,29.766 58.89,29.676 L58.89,27.732 L57.711,27.732 L57.711,24.087 Z M60.141,27.156 L60.141,24.663 L59.493,24.663 L59.493,27.156 L60.141,27.156 Z M58.926,27.156 L58.926,24.663 L58.278,24.663 L58.278,27.156 L58.926,27.156 Z M62.589,22.899 C63.111,23.511 63.516,24.051 63.795,24.519 L63.309,24.852 C63.003,24.348 62.607,23.808 62.13,23.232 L62.589,22.899 Z M68.142,25.221 C67.71,25.482 67.26,25.725 66.792,25.941 L66.414,25.401 C67.98,24.699 69.258,23.808 70.248,22.719 L70.77,22.719 C71.634,23.79 72.903,24.672 74.577,25.374 L74.208,25.914 C73.731,25.716 73.29,25.491 72.876,25.248 L72.876,25.743 L70.833,25.743 L70.833,27.039 L74.037,27.039 L74.037,27.642 L70.833,27.642 L70.833,30.045 L71.832,30.045 C72.138,29.46 72.408,28.83 72.642,28.155 L73.236,28.362 C73.011,28.992 72.759,29.559 72.489,30.045 L74.352,30.045 L74.352,30.666 L66.657,30.666 L66.657,30.045 L68.52,30.045 C68.331,29.469 68.088,28.938 67.8,28.434 L68.385,28.218 C68.664,28.722 68.916,29.334 69.15,30.045 L70.185,30.045 L70.185,27.642 L66.972,27.642 L66.972,27.039 L70.185,27.039 L70.185,25.743 L68.142,25.743 L68.142,25.221 Z M72.723,25.158 C71.841,24.636 71.103,24.024 70.509,23.331 C69.834,24.033 69.078,24.645 68.241,25.158 L72.723,25.158 Z M76.638,25.725 L76.638,27.228 L78.087,27.228 L78.087,25.725 L76.638,25.725 Z M78.087,25.14 L78.087,23.619 L76.638,23.619 L76.638,25.14 L78.087,25.14 Z M76.629,27.813 C76.575,29.073 76.359,30.108 75.99,30.918 L75.504,30.468 C75.864,29.658 76.044,28.614 76.053,27.354 L76.053,23.034 L78.681,23.034 L78.681,30.054 C78.681,30.594 78.429,30.873 77.925,30.873 L77.205,30.873 L77.052,30.297 C77.304,30.315 77.529,30.333 77.745,30.333 C77.97,30.333 78.087,30.171 78.087,29.847 L78.087,27.813 L76.629,27.813 Z M80.049,26.922 L80.049,30.909 L79.437,30.909 L79.437,23.025 L83.082,23.025 C83.082,24.141 83.028,24.879 82.92,25.239 C82.812,25.608 82.479,25.797 81.912,25.797 L81.183,25.797 L81.012,25.239 C81.165,25.239 81.363,25.248 81.615,25.248 C81.831,25.248 81.984,25.23 82.092,25.203 C82.2,25.167 82.281,25.077 82.335,24.942 C82.398,24.744 82.434,24.303 82.452,23.619 L80.049,23.619 L80.049,26.346 L83.109,26.346 L83.109,26.895 C82.938,27.822 82.641,28.614 82.227,29.262 C82.632,29.658 83.109,30.009 83.658,30.324 L83.334,30.873 C82.758,30.54 82.272,30.171 81.858,29.766 C81.462,30.225 81.003,30.594 80.463,30.882 L80.121,30.36 C80.634,30.081 81.066,29.73 81.426,29.298 C80.85,28.596 80.463,27.804 80.265,26.922 L80.049,26.922 Z M80.823,26.922 C81.012,27.615 81.336,28.236 81.795,28.794 C82.128,28.254 82.371,27.633 82.533,26.922 L80.823,26.922 Z M85.449,26.049 C85.17,26.454 84.864,26.841 84.54,27.21 L84.351,26.562 C85.287,25.41 85.962,24.096 86.376,22.611 L86.961,22.881 C86.727,23.628 86.439,24.339 86.088,25.005 L86.088,30.909 L85.449,30.909 L85.449,26.049 Z M86.808,24.186 L89.193,24.186 L89.193,22.638 L89.832,22.638 L89.832,24.186 L92.289,24.186 L92.289,24.816 L90.453,24.816 C90.867,26.301 91.596,27.624 92.64,28.785 L92.217,29.316 C91.119,27.984 90.354,26.481 89.94,24.816 L89.832,24.816 L89.832,28.425 L91.227,28.425 L91.227,29.046 L89.832,29.046 L89.832,30.9 L89.193,30.9 L89.193,29.046 L87.816,29.046 L87.816,28.425 L89.193,28.425 L89.193,24.816 L89.085,24.816 C88.635,26.688 87.852,28.227 86.745,29.424 L86.412,28.866 C87.42,27.822 88.131,26.472 88.563,24.816 L86.808,24.816 L86.808,24.186 Z M97.797,25.293 C97.473,25.653 97.131,25.977 96.771,26.256 L96.429,25.734 C97.437,24.951 98.22,23.934 98.76,22.683 L99.354,22.683 C99.804,23.835 100.596,24.834 101.712,25.698 L101.361,26.238 C100.974,25.941 100.632,25.626 100.326,25.293 L100.326,25.851 L97.797,25.851 L97.797,25.293 Z M100.299,25.257 C99.777,24.663 99.363,24.015 99.057,23.313 C98.697,24.069 98.292,24.717 97.824,25.257 L100.299,25.257 Z M96.69,29.964 L99.615,29.964 C99.957,29.01 100.263,27.822 100.533,26.409 L101.154,26.562 C100.902,27.84 100.605,28.974 100.245,29.964 L101.604,29.964 L101.604,30.585 L96.69,30.585 L96.69,29.964 Z M97.518,26.67 C97.806,27.417 98.058,28.281 98.292,29.253 L97.734,29.388 C97.536,28.506 97.275,27.669 96.96,26.859 L97.518,26.67 Z M98.904,26.409 C99.147,27.12 99.363,27.939 99.561,28.866 L98.994,29.001 C98.832,28.164 98.616,27.354 98.346,26.58 L98.904,26.409 Z M95.682,23.655 L93.504,23.655 L93.504,23.061 L96.33,23.061 L95.898,26.769 L96.456,26.769 C96.456,28.821 96.366,30 96.195,30.315 C96.015,30.621 95.646,30.783 95.079,30.783 C94.872,30.783 94.656,30.774 94.44,30.756 L94.269,30.18 C94.584,30.216 94.809,30.234 94.935,30.234 C95.367,30.234 95.628,30.09 95.718,29.82 C95.808,29.532 95.862,28.713 95.862,27.345 L93.567,27.345 L93.99,24.258 L94.584,24.294 L94.224,26.769 L95.286,26.769 L95.682,23.655 Z M95.349,28.146 L95.349,28.731 C94.755,28.956 94.089,29.136 93.342,29.28 L93.261,28.668 C94.053,28.533 94.755,28.362 95.349,28.146 Z M110.55,27.525 L110.649,28.155 L109.74,28.299 L109.74,30.873 L109.083,30.873 L109.083,28.407 L106.275,28.866 L106.185,28.236 L109.083,27.768 L109.083,22.683 L109.74,22.683 L109.74,27.66 L110.55,27.525 Z M107.04,23.151 C107.688,23.61 108.228,24.069 108.669,24.537 L108.228,24.987 C107.832,24.546 107.283,24.078 106.581,23.592 L107.04,23.151 Z M106.77,25.221 C107.427,25.707 107.985,26.184 108.435,26.67 L107.976,27.129 C107.571,26.67 107.013,26.184 106.311,25.662 L106.77,25.221 Z M102.567,25.077 L104.043,25.077 L104.043,23.745 C103.611,23.808 103.17,23.862 102.702,23.907 L102.576,23.295 C103.746,23.205 104.79,23.016 105.69,22.746 L105.915,23.358 C105.528,23.466 105.123,23.556 104.691,23.637 L104.691,25.077 L105.933,25.077 L105.933,25.698 L104.691,25.698 L104.691,26.139 C105.195,26.544 105.717,27.003 106.239,27.507 L105.87,28.056 C105.402,27.507 105.015,27.075 104.691,26.76 L104.691,30.873 L104.043,30.873 L104.043,26.67 C103.683,27.552 103.206,28.353 102.594,29.073 L102.315,28.353 C103.08,27.579 103.629,26.688 103.971,25.698 L102.567,25.698 L102.567,25.077 Z M112.422,30.801 L111.666,30.801 L111.531,30.189 C111.765,30.216 111.99,30.234 112.206,30.234 C112.449,30.234 112.575,30.099 112.575,29.829 L112.575,27.678 C112.215,27.822 111.855,27.957 111.477,28.083 L111.315,27.444 C111.747,27.336 112.161,27.201 112.575,27.048 L112.575,24.924 L111.486,24.924 L111.486,24.303 L112.575,24.303 L112.575,22.656 L113.205,22.656 L113.205,24.303 L114.159,24.303 L114.159,24.924 L113.205,24.924 L113.205,26.787 C113.538,26.625 113.862,26.463 114.177,26.283 L114.177,26.913 C113.853,27.093 113.529,27.255 113.205,27.408 L113.205,29.991 C113.205,30.531 112.944,30.801 112.422,30.801 Z M114.483,23.952 L116.643,23.952 L116.643,22.674 L117.273,22.674 L117.273,23.952 L119.442,23.952 L119.442,24.573 L117.273,24.573 L117.273,26.04 L119.091,26.04 L119.091,26.616 C118.776,27.606 118.254,28.452 117.525,29.154 C118.119,29.613 118.848,30.018 119.703,30.369 L119.361,30.909 C118.461,30.513 117.696,30.054 117.084,29.55 C116.382,30.108 115.527,30.567 114.519,30.927 L114.213,30.387 C115.167,30.072 115.977,29.658 116.634,29.145 C115.878,28.407 115.383,27.579 115.131,26.652 L114.654,26.652 L114.654,26.04 L116.643,26.04 L116.643,24.573 L114.483,24.573 L114.483,23.952 Z M115.734,26.652 C115.968,27.444 116.418,28.146 117.066,28.767 C117.687,28.164 118.146,27.462 118.443,26.652 L115.734,26.652 Z M120.549,25.014 L124.05,25.014 C124.122,24.492 124.158,23.952 124.167,23.385 L124.167,22.656 L124.833,22.656 L124.833,23.241 C124.833,23.871 124.788,24.456 124.716,25.014 L128.451,25.014 L128.451,25.644 L124.905,25.644 C125.535,27.678 126.777,29.244 128.622,30.342 L128.217,30.864 C126.408,29.748 125.166,28.182 124.491,26.148 C123.933,28.335 122.691,29.928 120.774,30.927 L120.369,30.387 C122.286,29.442 123.474,27.858 123.942,25.644 L120.549,25.644 L120.549,25.014 Z M133.266,22.647 L133.734,22.647 C134.877,23.925 136.191,24.933 137.676,25.671 L137.325,26.292 C135.831,25.509 134.562,24.483 133.5,23.223 C132.528,24.411 131.241,25.437 129.639,26.301 L129.297,25.68 C130.881,24.87 132.204,23.862 133.266,22.647 Z M131.304,25.41 L135.723,25.41 L135.723,26.022 L131.304,26.022 L131.304,25.41 Z M129.891,27.219 L137.127,27.219 L137.127,27.849 L132.888,27.849 C132.456,28.695 131.934,29.433 131.322,30.072 C132.789,29.982 134.184,29.856 135.516,29.676 C135.21,29.28 134.877,28.866 134.508,28.452 L135.012,28.128 C135.831,29.046 136.461,29.838 136.902,30.513 L136.362,30.891 C136.209,30.648 136.047,30.405 135.867,30.153 C134.463,30.378 132.69,30.558 130.539,30.684 L130.359,30.117 C130.521,30.072 130.629,30.018 130.701,29.946 C131.277,29.28 131.763,28.587 132.15,27.849 L129.891,27.849 L129.891,27.219 Z" id="蚂蚁金服体验科技大会" fill="#FFFFFF"></path>
        </g>
    </g>
</svg>